<svg width="48" height="48" viewBox="0 0 48 48" fill="none" xmlns="http://www.w3.org/2000/svg">
<path d="M45 5H3C1.895 5 1 5.895 1 7V41C1 42.105 1.895 43 3 43H45C46.105 43 47 42.105 47 41V7C47 5.895 46.105 5 45 5ZM41.662 11.75L24.662 26.75C24.473 26.917 24.236 27 24 27C23.764 27 23.527 26.917 23.338 26.75L6.338 11.75C5.924 11.385 5.884 10.753 6.25 10.339C6.616 9.924 7.247 9.884 7.662 10.25L24 24.666L40.338 10.25C40.752 9.884 41.384 9.924 41.75 10.339C42.115 10.753 42.076 11.385 41.662 11.75Z" fill="white"/>
</svg>
