<svg width="44" height="44" viewBox="0 0 44 44" fill="none" xmlns="http://www.w3.org/2000/svg">
<path d="M37 44.0003C16.598 44.0003 0 27.4023 0 7.00025C0 6.73525 0.105 6.48025 0.293 6.29325L6.293 0.29325C6.684 -0.09775 7.316 -0.09775 7.707 0.29325L17.707 10.2933C18.098 10.6843 18.098 11.3162 17.707 11.7072L12.414 17.0002L27 31.5862L32.293 26.2932C32.684 25.9022 33.316 25.9022 33.707 26.2932L43.707 36.2933C44.098 36.6843 44.098 37.3163 43.707 37.7073L37.707 43.7073C37.52 43.8953 37.265 44.0003 37 44.0003Z" fill="#37AE6C"/>
</svg>
