<svg width="46" height="38" viewBox="0 0 46 38" fill="none" xmlns="http://www.w3.org/2000/svg">
<path d="M44 0H2C0.895 0 0 0.895 0 2V36C0 37.105 0.895 38 2 38H44C45.105 38 46 37.105 46 36V2C46 0.895 45.105 0 44 0ZM40.662 6.75L23.662 21.75C23.473 21.917 23.236 22 23 22C22.764 22 22.527 21.917 22.338 21.75L5.338 6.75C4.924 6.385 4.884 5.753 5.25 5.339C5.616 4.924 6.247 4.884 6.662 5.25L23 19.666L39.338 5.25C39.752 4.884 40.384 4.924 40.75 5.339C41.115 5.753 41.076 6.385 40.662 6.75Z" fill="#37AE6C"/>
</svg>
